PathFileType	4	(X/Y/Z)	 1.8Hz3min.trc
DataRate	CameraRate	NumFrames	NumMarkers	Units	OrigDataRate	OrigDataStartFrame	OrigNumFrames
200	200	8	39	m	200	376	1000
Frame#	Time	C7			LSH			RSH			MAN			RASI			LASI			HIPR			HIPL			RPSI			LPSI			COX			RTHI1			RTHI2			RTHI3			RTHI4			RLKN			RMKN			RSHA1			RSHA2			RSHA3			RSHA4			RHEEL			RMET5			RMET1			RTOE			LTHI1			LTHI2			LTHI3			LTHI4			LLKN			LMKN			LSHA1			LSHA2			LSHA3			LSHA4			LHEEL			LMET5			LMET1			LTOE			
		X1	Y1	Z1	X2	Y2	Z2	X3	Y3	Z3	X4	Y4	Z4	X5	Y5	Z5	X6	Y6	Z6	X7	Y7	Z7	X8	Y8	Z8	X9	Y9	Z9	X10	Y10	Z10	X11	Y11	Z11	X12	Y12	Z12	X13	Y13	Z13	X14	Y14	Z14	X15	Y15	Z15	X16	Y16	Z16	X17	Y17	Z17	X18	Y18	Z18	X19	Y19	Z19	X20	Y20	Z20	X21	Y21	Z21	X22	Y22	Z22	X23	Y23	Z23	X24	Y24	Z24	X25	Y25	Z25	X26	Y26	Z26	X27	Y27	Z27	X28	Y28	Z28	X29	Y29	Z29	X30	Y30	Z30	X31	Y31	Z31	X32	Y32	Z32	X33	Y33	Z33	X34	Y34	Z34	X35	Y35	Z35	X36	Y36	Z36	X37	Y37	Z37	X38	Y38	Z38	X39	Y39	Z39	
376	1.8800	-0.288943	1.602528	-0.536792	-0.238619	1.568244	-0.778254	-0.225573	1.566483	-0.325945	-0.144574	1.527269	-0.548204	-0.191983	1.064586	-0.426374	-0.191019	1.068846	-0.660544	-0.252894	1.128237	-0.379061	-0.250633	1.139686	-0.705087	-0.370069	1.113245	-0.485648	-0.366988	1.119133	-0.595848	-0.378831	1.112501	-0.542482	-0.261996	0.840150	-0.327250	-0.241718	0.786671	-0.310827	-0.180197	0.808068	-0.310558	-0.194100	0.865232	-0.328564	-0.170318	0.505227	-0.316106	-0.139269	0.493403	-0.417940	-0.269410	0.390114	-0.290462	-0.291858	0.353916	-0.298199	-0.219537	0.365680	-0.303110	-0.236826	0.329610	-0.306961	-0.422896	0.080331	-0.389495	-0.266028	0.025111	-0.283515	-0.208067	0.042590	-0.369484	-0.173724	0.029711	-0.360048	-0.248714	0.820514	-0.756964	-0.223219	0.766739	-0.770654	-0.162532	0.789857	-0.773456	-0.180048	0.846069	-0.761436	-0.148028	0.509729	-0.757482	-0.114550	0.498401	-0.662866	-0.288993	0.374858	-0.770895	-0.306009	0.338639	-0.765595	-0.248049	0.316813	-0.777042	-0.238151	0.359819	-0.781460	-0.413432	0.080388	-0.703018	-0.254416	0.028663	-0.799733	-0.196828	0.040523	-0.717555	-0.157262	0.027740	-0.729061	
377	1.8850	-0.289270	1.607931	-0.536974	-0.239105	1.574307	-0.778212	-0.225868	1.572595	-0.326412	-0.144880	1.533366	-0.548413	-0.190717	1.069997	-0.426641	-0.189866	1.074736	-0.660547	-0.251041	1.134127	-0.379197	-0.248969	1.145814	-0.704996	-0.368709	1.119071	-0.485479	-0.365798	1.124820	-0.595939	-0.377629	1.118363	-0.542401	-0.262203	0.845435	-0.327650	-0.242453	0.791726	-0.311305	-0.180707	0.812471	-0.311209	-0.194049	0.869788	-0.329141	-0.173888	0.509451	-0.316896	-0.142999	0.497400	-0.418811	-0.272030	0.393567	-0.290916	-0.294140	0.357143	-0.298562	-0.221921	0.369507	-0.303391	-0.238867	0.333268	-0.307132	-0.422416	0.082868	-0.388914	-0.265914	0.025299	-0.283503	-0.208048	0.042581	-0.369420	-0.173886	0.029671	-0.360111	-0.249547	0.825788	-0.756831	-0.224561	0.771750	-0.770451	-0.163662	0.794287	-0.773275	-0.180654	0.850681	-0.761333	-0.151459	0.514048	-0.757163	-0.118236	0.502677	-0.662255	-0.291241	0.378045	-0.770854	-0.307945	0.341665	-0.765562	-0.249817	0.320334	-0.777073	-0.240276	0.363430	-0.781456	-0.412829	0.083043	-0.703654	-0.254181	0.028728	-0.799612	-0.196754	0.040530	-0.717690	-0.157322	0.027740	-0.728964	
378	1.8900	-0.289578	1.613328	-0.537153	-0.239584	1.580360	-0.778177	-0.226160	1.578697	-0.326901	-0.145200	1.539443	-0.548621	-0.189499	1.075414	-0.426909	-0.188779	1.080654	-0.660569	-0.249219	1.140049	-0.379351	-0.247455	1.151935	-0.704905	-0.367377	1.124934	-0.485285	-0.364665	1.130523	-0.595990	-0.376471	1.124258	-0.542286	-0.262409	0.850755	-0.328021	-0.243167	0.796833	-0.311753	-0.181214	0.816960	-0.311837	-0.194015	0.874405	-0.329687	-0.177383	0.513771	-0.317634	-0.146582	0.501537	-0.419607	-0.274562	0.397180	-0.291323	-0.296337	0.360542	-0.298875	-0.224227	0.373491	-0.303628	-0.240836	0.337094	-0.307233	-0.421860	0.085596	-0.388297	-0.265785	0.025498	-0.283535	-0.208014	0.042578	-0.369327	-0.174050	0.029631	-0.360171	-0.250356	0.831142	-0.756736	-0.225850	0.776865	-0.770288	-0.164748	0.798849	-0.773089	-0.181246	0.855401	-0.761209	-0.154763	0.518483	-0.756892	-0.121793	0.507073	-0.661702	-0.293390	0.381388	-0.770863	-0.309787	0.344865	-0.765579	-0.251501	0.324008	-0.777169	-0.242313	0.367188	-0.781514	-0.412130	0.085897	-0.704360	-0.253940	0.028775	-0.799472	-0.196664	0.040554	-0.717859	-0.157386	0.027743	-0.728849	
379	1.8950	-0.289863	1.618708	-0.537333	-0.240053	1.586384	-0.778147	-0.226434	1.584785	-0.327363	-0.145533	1.545491	-0.548831	-0.188333	1.080823	-0.427170	-0.187766	1.086564	-0.660606	-0.247435	1.145976	-0.379529	-0.246108	1.158023	-0.704818	-0.366080	1.130806	-0.485075	-0.363591	1.136227	-0.596003	-0.375355	1.130165	-0.542148	-0.262623	0.856096	-0.328381	-0.243861	0.801973	-0.312175	-0.181708	0.821504	-0.312433	-0.193998	0.879083	-0.330203	-0.180772	0.518194	-0.318322	-0.150001	0.505796	-0.420329	-0.276993	0.400939	-0.291692	-0.298444	0.364099	-0.299136	-0.226446	0.377616	-0.303827	-0.242728	0.341056	-0.307258	-0.421221	0.088493	-0.387649	-0.265636	0.025702	-0.283610	-0.207963	0.042582	-0.369205	-0.174211	0.029596	-0.360225	-0.251140	0.836557	-0.756676	-0.227080	0.782065	-0.770169	-0.165790	0.803517	-0.772896	-0.181822	0.860205	-0.761066	-0.157925	0.523020	-0.756669	-0.125179	0.511566	-0.661226	-0.295441	0.384858	-0.770923	-0.311534	0.348198	-0.765654	-0.253091	0.327827	-0.777327	-0.244260	0.371064	-0.781635	-0.411330	0.088904	-0.705125	-0.253694	0.028809	-0.799312	-0.196558	0.040593	-0.718058	-0.157455	0.027755	-0.728723	
380	1.9000	-0.290126	1.624061	-0.537513	-0.240492	1.592362	-0.778112	-0.226690	1.590839	-0.327793	-0.145872	1.551471	-0.549041	-0.187223	1.086216	-0.427413	-0.186827	1.092440	-0.660663	-0.245709	1.151883	-0.379722	-0.244937	1.164058	-0.704740	-0.364827	1.136668	-0.484850	-0.362576	1.141915	-0.595978	-0.374285	1.136058	-0.541978	-0.262841	0.861441	-0.328707	-0.244533	0.807133	-0.312593	-0.182196	0.826088	-0.312997	-0.193992	0.883790	-0.330687	-0.184058	0.522701	-0.318953	-0.153235	0.510163	-0.420971	-0.279316	0.404831	-0.292011	-0.300455	0.367787	-0.299342	-0.228571	0.381848	-0.304006	-0.244535	0.345148	-0.307200	-0.420448	0.091511	-0.386996	-0.265464	0.025915	-0.283732	-0.207894	0.042593	-0.369055	-0.174387	0.029588	-0.360247	-0.251893	0.842014	-0.756648	-0.228248	0.787326	-0.770092	-0.166782	0.808280	-0.772712	-0.182375	0.865085	-0.760909	-0.160948	0.527635	-0.756500	-0.128427	0.516118	-0.660870	-0.297394	0.388419	-0.771040	-0.313180	0.351623	-0.765782	-0.254586	0.331744	-0.777544	-0.246114	0.375037	-0.781828	-0.410431	0.092032	-0.705942	-0.253447	0.028831	-0.799127	-0.196444	0.040640	-0.718280	-0.157532	0.027771	-0.728588	
381	1.9050	-0.290364	1.629370	-0.537692	-0.240898	1.598274	-0.778074	-0.226921	1.596841	-0.328188	-0.146218	1.557369	-0.549253	-0.186173	1.091579	-0.427632	-0.185957	1.098256	-0.660734	-0.244070	1.157751	-0.379925	-0.243940	1.170013	-0.704672	-0.363620	1.142485	-0.484618	-0.361620	1.147568	-0.595919	-0.373261	1.141920	-0.541792	-0.263047	0.866778	-0.328953	-0.245179	0.812288	-0.312977	-0.182676	0.830691	-0.313533	-0.194002	0.888508	-0.331139	-0.187198	0.527260	-0.319544	-0.156286	0.514607	-0.421541	-0.281531	0.408820	-0.292285	-0.302364	0.371576	-0.299497	-0.230588	0.386176	-0.304107	-0.246255	0.349345	-0.307102	-0.419539	0.094627	-0.386340	-0.265262	0.026133	-0.283901	-0.207805	0.042614	-0.368877	-0.174574	0.029614	-0.360230	-0.252614	0.847491	-0.756648	-0.229355	0.792619	-0.770062	-0.167727	0.813103	-0.772527	-0.182907	0.870017	-0.760741	-0.163849	0.532293	-0.756383	-0.131496	0.520711	-0.660659	-0.299249	0.392047	-0.771217	-0.314718	0.355118	-0.765955	-0.255984	0.335737	-0.777815	-0.247876	0.379086	-0.782082	-0.409432	0.095254	-0.706806	-0.253205	0.028847	-0.798915	-0.196322	0.040691	-0.718521	-0.157616	0.027791	-0.728447	
382	1.9100	-0.290574	1.634623	-0.537875	-0.241276	1.604108	-0.778030	-0.227124	1.602759	-0.328546	-0.146568	1.563156	-0.549467	-0.185185	1.096894	-0.427818	-0.185155	1.103980	-0.660819	-0.242534	1.163562	-0.380131	-0.243112	1.175871	-0.704615	-0.362467	1.148244	-0.484383	-0.360720	1.153171	-0.595834	-0.372280	1.147733	-0.541607	-0.263251	0.872075	-0.329172	-0.245796	0.817417	-0.313333	-0.183139	0.835284	-0.314044	-0.194021	0.893219	-0.331566	-0.190213	0.531883	-0.320088	-0.159163	0.519103	-0.422047	-0.283642	0.412871	-0.292542	-0.304172	0.375441	-0.299607	-0.232492	0.390584	-0.304115	-0.247871	0.353619	-0.306945	-0.418492	0.097806	-0.385683	-0.265020	0.026366	-0.284085	-0.207697	0.042645	-0.368676	-0.174756	0.029655	-0.360190	-0.253303	0.852966	-0.756672	-0.230400	0.797921	-0.770070	-0.168619	0.817973	-0.772348	-0.183418	0.874974	-0.760570	-0.166636	0.536969	-0.756310	-0.134359	0.525320	-0.660562	-0.301016	0.395702	-0.771443	-0.316156	0.358627	-0.766175	-0.257282	0.339770	-0.778135	-0.249552	0.383174	-0.782403	-0.408334	0.098551	-0.707707	-0.252965	0.028865	-0.798676	-0.196183	0.040744	-0.718776	-0.157708	0.027818	-0.728306	
383	1.9150	-0.290757	1.639807	-0.538060	-0.241631	1.609844	-0.777983	-0.227297	1.608585	-0.328876	-0.146920	1.568823	-0.549682	-0.184258	1.102154	-0.427967	-0.184417	1.109586	-0.660910	-0.241118	1.169307	-0.380329	-0.242444	1.181609	-0.704564	-0.361370	1.153924	-0.484148	-0.359875	1.158710	-0.595726	-0.371346	1.153477	-0.541417	-0.263445	0.877319	-0.329359	-0.246384	0.822501	-0.313662	-0.183580	0.839860	-0.314530	-0.194041	0.897904	-0.331966	-0.193099	0.536533	-0.320609	-0.161879	0.523622	-0.422507	-0.285658	0.416957	-0.292778	-0.305889	0.379340	-0.299690	-0.234294	0.395045	-0.304067	-0.249397	0.357934	-0.306785	-0.417301	0.101027	-0.385027	-0.264738	0.026610	-0.284279	-0.207575	0.042689	-0.368456	-0.174930	0.029719	-0.360124	-0.253955	0.858416	-0.756718	-0.231383	0.803216	-0.770111	-0.169460	0.822857	-0.772185	-0.183905	0.879934	-0.760398	-0.169328	0.541638	-0.756282	-0.137042	0.529921	-0.660601	-0.302694	0.399358	-0.771722	-0.317492	0.362141	-0.766422	-0.258481	0.343823	-0.778497	-0.251146	0.387275	-0.782779	-0.407144	0.101891	-0.708645	-0.252693	0.028940	-0.798448	-0.196029	0.040785	-0.719024	-0.157805	0.027853	-0.728176	
